<svg width="18" height="18" viewBox="0 0 18 18" fill="none" xmlns="http://www.w3.org/2000/svg">
<path d="M12.6297 7.56953C12.5877 7.68094 12.5242 7.783 12.4428 7.86988L9.04347 11.4949C8.8819 11.6669 8.65961 11.7691 8.42386 11.7798C8.18811 11.7904 7.9575 11.7087 7.78106 11.552L5.742 9.73948C5.57151 9.57751 5.47065 9.35562 5.46072 9.12067C5.4508 8.88572 5.53259 8.65611 5.68883 8.48035C5.84506 8.30459 6.06349 8.19644 6.29799 8.17875C6.53248 8.16106 6.76467 8.23521 6.9455 8.38554L8.32572 9.6117L11.1197 6.63013C11.2011 6.54325 11.2988 6.47326 11.4073 6.42415C11.5157 6.37504 11.6328 6.34776 11.7518 6.34389C11.8708 6.34002 11.9894 6.35963 12.1008 6.40159C12.2122 6.44355 12.3142 6.50704 12.4011 6.58845C12.488 6.66985 12.558 6.76757 12.6071 6.87602C12.6562 6.98447 12.6835 7.10154 12.6874 7.22053C12.6912 7.33952 12.6716 7.45811 12.6297 7.56953Z" fill="currentColor"/>
</svg>
