<svg width="25" height="24" viewBox="0 0 25 24" fill="none" xmlns="http://www.w3.org/2000/svg">
<path d="M12.3333 2.69L17.9933 8.35C19.1127 9.46861 19.8751 10.8941 20.1842 12.4461C20.4933 13.998 20.3352 15.6069 19.7299 17.069C19.1245 18.5311 18.0991 19.7808 16.7834 20.6601C15.4677 21.5394 13.9208 22.0087 12.3383 22.0087C10.7558 22.0087 9.20892 21.5394 7.89321 20.6601C6.57751 19.7808 5.55213 18.5311 4.94678 17.069C4.34144 15.6069 4.18332 13.998 4.49242 12.4461C4.80153 10.8941 5.56398 9.46861 6.68332 8.35L12.3333 2.69Z" stroke="currentColor" stroke-width="2" stroke-linecap="round" stroke-linejoin="round"/>
<path d="M11.8153 18.4821C9.62803 18.4821 7.85486 16.7089 7.85486 14.5216" stroke="currentColor" stroke-width="2" stroke-linecap="round" stroke-linejoin="round"/>
</svg>
