<svg width="24" height="24" viewBox="0 0 24 24" fill="none" xmlns="http://www.w3.org/2000/svg">
<path d="M20.84 4.61001C20.3293 4.09901 19.7228 3.69366 19.0554 3.41709C18.3879 3.14053 17.6725 2.99818 16.95 2.99818C16.2275 2.99818 15.5121 3.14053 14.8447 3.41709C14.1772 3.69366 13.5708 4.09901 13.06 4.61001L12 5.67001L10.94 4.61001C9.90832 3.57832 8.50905 2.99872 7.05001 2.99872C5.59098 2.99872 4.1917 3.57832 3.16001 4.61001C2.12832 5.6417 1.54872 7.04098 1.54872 8.50001C1.54872 9.95904 2.12832 11.3583 3.16001 12.39L4.22001 13.45L12 21.23L19.78 13.45L20.84 12.39C21.351 11.8793 21.7564 11.2728 22.0329 10.6054C22.3095 9.93791 22.4518 9.2225 22.4518 8.50001C22.4518 7.77752 22.3095 7.06211 22.0329 6.39465C21.7564 5.7272 21.351 5.12077 20.84 4.61001V4.61001Z" stroke="currentColor" stroke-width="2" stroke-linecap="round" stroke-linejoin="round"/>
</svg>
