<svg width="25" height="24" viewBox="0 0 25 24" fill="none" xmlns="http://www.w3.org/2000/svg">
<path d="M21.6667 11.5C21.6701 12.8199 21.3617 14.1219 20.7667 15.3C20.0611 16.7117 18.9764 17.8992 17.6341 18.7293C16.2918 19.5594 14.7449 19.9994 13.1667 20C11.8468 20.0034 10.5448 19.6951 9.36666 19.1L3.66666 21L5.56666 15.3C4.97159 14.1219 4.66322 12.8199 4.66666 11.5C4.66727 9.92176 5.10727 8.37485 5.93738 7.03255C6.76748 5.69025 7.95491 4.60557 9.36666 3.9C10.5448 3.30493 11.8468 2.99656 13.1667 3H13.6667C15.751 3.11499 17.7197 3.99476 19.1958 5.47086C20.6719 6.94695 21.5517 8.91565 21.6667 11V11.5Z" stroke="currentColor" stroke-width="2" stroke-linecap="round" stroke-linejoin="round"/>
<path d="M9.99991 10C11.7948 10 15.7076 10 16.9999 10" stroke="currentColor" stroke-width="2" stroke-linecap="round"/>
<path d="M9.99991 14C11.0255 14 13.2614 14 13.9999 14" stroke="currentColor" stroke-width="2" stroke-linecap="round"/>
</svg>
